<svg xmlns="http://www.w3.org/2000/svg" width="156" height="40" viewBox="0 0 156 40" fill="none"><path d="M54.4219 25.4121H63.5357V22.9304H57.432V11.1748H54.4219V25.4121Z" fill="#3C2979"></path><path d="M69.7106 25.6209C72.9502 25.6209 74.9662 23.4032 74.9662 20.115C74.9662 16.8059 72.9502 14.5952 69.7106 14.5952C66.4711 14.5952 64.4551 16.8059 64.4551 20.115C64.4551 23.4032 66.4711 25.6209 69.7106 25.6209ZM69.7245 23.3267C68.2298 23.3267 67.4651 21.9572 67.4651 20.0941C67.4651 18.231 68.2298 16.8546 69.7245 16.8546C71.1914 16.8546 71.956 18.231 71.956 20.0941C71.956 21.9572 71.1914 23.3267 69.7245 23.3267Z" fill="#3C2979"></path><path d="M81.1151 29.639C84.167 29.639 86.3359 28.2485 86.3359 25.5165V14.7343H83.3953V16.5278H83.2841C82.8878 15.6588 82.0189 14.5952 80.2322 14.5952C77.8894 14.5952 75.9082 16.4167 75.9082 20.0524C75.9082 23.6048 77.8338 25.2593 80.2392 25.2593C81.9424 25.2593 82.8948 24.4042 83.2841 23.5214H83.4092V25.4748C83.4092 26.9417 82.4707 27.5117 81.1846 27.5117C79.8776 27.5117 79.2172 26.9417 78.974 26.2951L76.235 26.6636C76.5894 28.3459 78.237 29.639 81.1151 29.639ZM81.1776 23.0347C79.7247 23.0347 78.9322 21.8808 78.9322 20.0385C78.9322 18.224 79.7109 16.9519 81.1776 16.9519C82.6167 16.9519 83.4231 18.1684 83.4231 20.0385C83.4231 21.9224 82.6028 23.0347 81.1776 23.0347Z" fill="#3C2979"></path><path d="M92.9304 25.6209C96.17 25.6209 98.186 23.4032 98.186 20.115C98.186 16.8059 96.17 14.5952 92.9304 14.5952C89.6909 14.5952 87.6748 16.8059 87.6748 20.115C87.6748 23.4032 89.6909 25.6209 92.9304 25.6209ZM92.9443 23.3267C91.4497 23.3267 90.685 21.9572 90.685 20.0941C90.685 18.231 91.4497 16.8546 92.9443 16.8546C94.4111 16.8546 95.1758 18.231 95.1758 20.0941C95.1758 21.9572 94.4111 23.3267 92.9443 23.3267Z" fill="#3C2979"></path><path d="M99.5244 25.412H102.486V14.734H99.5244V25.412ZM101.012 13.3575C101.895 13.3575 102.618 12.6833 102.618 11.856C102.618 11.0357 101.895 10.3613 101.012 10.3613C100.136 10.3613 99.4131 11.0357 99.4131 11.856C99.4131 12.6833 100.136 13.3575 101.012 13.3575Z" fill="#3C2979"></path><path d="M104.271 29.4165H107.232V23.7021H107.322C107.732 24.5919 108.628 25.5861 110.353 25.5861C112.786 25.5861 114.684 23.6604 114.684 20.0871C114.684 16.4167 112.702 14.5952 110.36 14.5952C108.573 14.5952 107.719 15.6588 107.322 16.5278H107.189V14.7343H104.271V29.4165ZM107.169 20.0733C107.169 18.1684 107.975 16.9519 109.414 16.9519C110.882 16.9519 111.66 18.224 111.66 20.0733C111.66 21.9363 110.867 23.2294 109.414 23.2294C107.989 23.2294 107.169 21.9781 107.169 20.0733Z" fill="#3C2979"></path><path d="M124.956 17.7791C124.691 15.8118 123.106 14.5952 120.409 14.5952C117.677 14.5952 115.877 15.8604 115.883 17.9182C115.877 19.5172 116.884 20.553 118.97 20.9701L120.819 21.3385C121.75 21.5262 122.175 21.8668 122.188 22.4021C122.175 23.0347 121.487 23.4866 120.451 23.4866C119.394 23.4866 118.692 23.0347 118.511 22.1658L115.599 22.3187C115.877 24.3625 117.614 25.6209 120.444 25.6209C123.21 25.6209 125.191 24.2096 125.199 22.1032C125.191 20.5599 124.183 19.6353 122.112 19.2112L120.179 18.8219C119.185 18.6064 118.817 18.2658 118.824 17.7513C118.817 17.1118 119.54 16.6947 120.457 16.6947C121.487 16.6947 122.098 17.2578 122.244 17.946L124.956 17.7791Z" fill="#3C2979"></path><path d="M133.324 20.8654C133.331 22.2975 132.35 23.0482 131.287 23.0482C130.168 23.0482 129.445 22.2627 129.438 21.0043V14.7339H126.477V21.5328C126.483 24.0285 127.943 25.5509 130.091 25.5509C131.697 25.5509 132.851 24.7236 133.331 23.4722H133.442V25.4118H136.285V14.7339H133.324V20.8654Z" fill="#3C2979"></path><path d="M138.066 25.4122H141.028V19.0027C141.028 17.8209 141.779 17.0353 142.766 17.0353C143.739 17.0353 144.393 17.7027 144.393 18.7524V25.4122H147.264V18.8914C147.264 17.7861 147.897 17.0353 148.974 17.0353C149.92 17.0353 150.628 17.6262 150.628 18.815V25.4122H153.583V18.231C153.583 15.916 152.207 14.5952 150.218 14.5952C148.654 14.5952 147.438 15.3947 147 16.6182H146.889C146.548 15.3808 145.456 14.5952 143.989 14.5952C142.551 14.5952 141.459 15.3599 141.014 16.6182H140.889V14.7343H138.066V25.4122Z" fill="#3C2979"></path><path d="M17.5625 2.05127H26.792L23.0873 12.4044C16.5667 13.5502 11.5794 19.859 11.5794 27.4697C11.5794 30.9031 12.5944 34.0715 14.3071 36.6204H2.05176L13.2555 5.31084C13.9599 3.34217 15.6656 2.05127 17.5625 2.05127Z" fill="#341492"></path><path d="M26.7915 2.05127L24.1878 9.32743L23.4033 2.05127H26.7915Z" fill="black" fill-opacity="0.3"></path><path d="M32.6329 2.05127H23.4033L27.0924 12.3607C33.7428 13.3797 38.866 19.7559 38.866 27.4697C38.866 30.9031 37.851 34.0715 36.1383 36.6204H48.1435L36.9398 5.31085C36.2354 3.34217 34.5297 2.05127 32.6329 2.05127Z" fill="#4C28B5"></path><path d="M15.9162 35.6238C14.3389 33.3777 13.3984 30.5464 13.3984 27.4695C13.3984 20.1696 18.6924 14.252 25.2227 14.252C31.7532 14.252 37.0472 20.1696 37.0472 27.4695C37.0472 30.5464 36.1066 33.3777 34.5294 35.6238C31.9402 33.6963 28.7168 32.5532 25.2227 32.5532C21.7288 32.5532 18.5054 33.6963 15.9162 35.6238Z" fill="#4C28B5"></path></svg>