<svg xmlns="http://www.w3.org/2000/svg" width="229" height="40" viewBox="0 0 229 40" fill="none"><path d="M34.3006 30.6585H46.1452L16.8037 1.31689H4.95898L34.3006 30.6585Z" fill="#7476ED"></path><path d="M22.8887 1.3169L51.1734 29.6016V1.31689H43.519V10.2469L34.589 1.31689L22.8887 1.3169Z" fill="#E56F8C"></path><path d="M0 2.29932V30.6585H7.65433V21.7284L16.5843 30.6585H28.3593L0 2.29932Z" fill="#64C2DB"></path><path d="M69.6438 26.2467H76.502V30.2882H64.4082V8.79492H69.6438V26.2467Z" fill="#3A3B7B"></path><path d="M85.8578 30.5329C84.184 30.5329 82.6735 30.1757 81.3264 29.4611C79.9996 28.7468 78.9485 27.7262 78.1728 26.3995C77.4177 25.0727 77.04 23.5214 77.04 21.7456C77.04 19.9903 77.4277 18.4491 78.2034 17.1225C78.9791 15.7752 80.0405 14.7445 81.3876 14.0301C82.7348 13.3157 84.2452 12.9585 85.919 12.9585C87.5928 12.9585 89.1031 13.3157 90.4504 14.0301C91.7975 14.7445 92.8589 15.7752 93.6346 17.1225C94.4103 18.4491 94.798 19.9903 94.798 21.7456C94.798 23.501 94.4 25.0523 93.6039 26.3995C92.8283 27.7262 91.7566 28.7468 90.3891 29.4611C89.042 30.1757 87.5314 30.5329 85.8578 30.5329ZM85.8578 26.0014C86.858 26.0014 87.7051 25.634 88.399 24.8992C89.1134 24.1644 89.4706 23.1133 89.4706 21.7456C89.4706 20.378 89.1236 19.3269 88.4297 18.5921C87.756 17.8573 86.9191 17.4899 85.919 17.4899C84.8984 17.4899 84.0513 17.8573 83.3778 18.5921C82.7042 19.3065 82.3674 20.3577 82.3674 21.7456C82.3674 23.1133 82.694 24.1644 83.3471 24.8992C84.0208 25.634 84.8577 26.0014 85.8578 26.0014Z" fill="#3A3B7B"></path><path d="M103.148 12.9585C104.352 12.9585 105.404 13.2034 106.302 13.6933C107.22 14.1832 107.924 14.8262 108.414 15.6222V13.2034H113.65V30.2573C113.65 31.829 113.333 33.2475 112.701 34.513C112.088 35.7989 111.139 36.8195 109.853 37.5748C108.588 38.33 107.006 38.7077 105.108 38.7077C102.577 38.7077 100.525 38.1054 98.9535 36.9011C97.3818 35.7173 96.4838 34.1049 96.2592 32.0637H101.434C101.597 32.7169 101.985 33.2271 102.597 33.5945C103.209 33.9823 103.965 34.1763 104.863 34.1763C105.945 34.1763 106.802 33.86 107.435 33.2271C108.088 32.6148 108.414 31.6249 108.414 30.2573V27.8385C107.904 28.6345 107.2 29.2877 106.302 29.798C105.404 30.2878 104.352 30.5329 103.148 30.5329C101.74 30.5329 100.464 30.1757 99.321 29.4611C98.1778 28.7263 97.2695 27.6957 96.5961 26.3689C95.9429 25.0217 95.6162 23.4705 95.6162 21.7151C95.6162 19.9597 95.9429 18.4186 96.5961 17.0918C97.2695 15.7651 98.1778 14.7445 99.321 14.0301C100.464 13.3157 101.74 12.9585 103.148 12.9585ZM108.414 21.7456C108.414 20.4394 108.047 19.4086 107.312 18.6533C106.598 17.898 105.72 17.5204 104.679 17.5204C103.638 17.5204 102.75 17.898 102.015 18.6533C101.301 19.3881 100.944 20.4087 100.944 21.7151C100.944 23.0214 101.301 24.0623 102.015 24.838C102.75 25.5933 103.638 25.9708 104.679 25.9708C105.72 25.9708 106.598 25.5933 107.312 24.838C108.047 24.0828 108.414 23.052 108.414 21.7456Z" fill="#3A3B7B"></path><path d="M124.295 30.5329C122.622 30.5329 121.111 30.1757 119.764 29.4611C118.437 28.7468 117.386 27.7262 116.61 26.3995C115.855 25.0727 115.478 23.5214 115.478 21.7456C115.478 19.9903 115.865 18.4491 116.641 17.1225C117.417 15.7752 118.478 14.7445 119.825 14.0301C121.172 13.3157 122.683 12.9585 124.357 12.9585C126.03 12.9585 127.541 13.3157 128.888 14.0301C130.235 14.7445 131.297 15.7752 132.072 17.1225C132.848 18.4491 133.236 19.9903 133.236 21.7456C133.236 23.501 132.838 25.0523 132.042 26.3995C131.266 27.7262 130.194 28.7468 128.827 29.4611C127.479 30.1757 125.969 30.5329 124.295 30.5329ZM124.295 26.0014C125.295 26.0014 126.143 25.634 126.836 24.8992C127.551 24.1644 127.908 23.1133 127.908 21.7456C127.908 20.378 127.561 19.3269 126.867 18.5921C126.194 17.8573 125.357 17.4899 124.357 17.4899C123.336 17.4899 122.489 17.8573 121.815 18.5921C121.142 19.3065 120.805 20.3577 120.805 21.7456C120.805 23.1133 121.132 24.1644 121.785 24.8992C122.458 25.634 123.295 26.0014 124.295 26.0014Z" fill="#3A3B7B"></path><path d="M137.728 11.4279C136.81 11.4279 136.055 11.1625 135.463 10.6318C134.891 10.0807 134.605 9.40714 134.605 8.61108C134.605 7.79462 134.891 7.12103 135.463 6.59034C136.055 6.03923 136.81 5.76367 137.728 5.76367C138.627 5.76367 139.361 6.03923 139.933 6.59034C140.525 7.12103 140.821 7.79462 140.821 8.61108C140.821 9.40714 140.525 10.0807 139.933 10.6318C139.361 11.1625 138.627 11.4279 137.728 11.4279ZM140.331 13.2037V30.2881H135.095V13.2037H140.331Z" fill="#3A3B7B"></path><path d="M148.441 15.6222C148.952 14.8262 149.656 14.1832 150.554 13.6933C151.452 13.2034 152.504 12.9585 153.708 12.9585C155.117 12.9585 156.392 13.3157 157.535 14.0301C158.678 14.7445 159.576 15.7651 160.229 17.0918C160.904 18.4186 161.24 19.9597 161.24 21.7151C161.24 23.4705 160.904 25.0217 160.229 26.3689C159.576 27.6957 158.678 28.7263 157.535 29.4611C156.392 30.1757 155.117 30.5329 153.708 30.5329C152.524 30.5329 151.472 30.2878 150.554 29.798C149.656 29.3081 148.952 28.6754 148.441 27.8997V38.4321H143.206V13.2034H148.441V15.6222ZM155.912 21.7151C155.912 20.4087 155.545 19.3881 154.81 18.6533C154.096 17.898 153.207 17.5204 152.146 17.5204C151.105 17.5204 150.218 17.898 149.483 18.6533C148.769 19.4086 148.412 20.4394 148.412 21.7456C148.412 23.052 148.769 24.0828 149.483 24.838C150.218 25.5933 151.105 25.9708 152.146 25.9708C153.188 25.9708 154.075 25.5933 154.81 24.838C155.545 24.0623 155.912 23.0214 155.912 21.7151Z" fill="#3A3B7B"></path><path d="M170.018 30.5329C168.527 30.5329 167.201 30.2777 166.038 29.7674C164.874 29.2571 163.955 28.5631 163.283 27.6854C162.609 26.7874 162.231 25.7871 162.149 24.6849H167.324C167.385 25.2769 167.661 25.7566 168.151 26.124C168.64 26.4914 169.243 26.6751 169.957 26.6751C170.61 26.6751 171.109 26.5526 171.458 26.3077C171.825 26.0423 172.009 25.7054 172.009 25.2973C172.009 24.8074 171.752 24.4502 171.243 24.2256C170.732 23.9807 169.905 23.7154 168.763 23.4296C167.538 23.1438 166.517 22.8478 165.701 22.5417C164.884 22.2151 164.181 21.7151 163.588 21.0414C162.997 20.3475 162.701 19.4188 162.701 18.2552C162.701 17.2755 162.966 16.3877 163.496 15.5915C164.047 14.7751 164.844 14.1322 165.884 13.6627C166.946 13.1932 168.201 12.9585 169.65 12.9585C171.794 12.9585 173.478 13.4892 174.702 14.5506C175.948 15.612 176.662 17.0204 176.846 18.7758H172.009C171.926 18.1838 171.661 17.7143 171.212 17.3674C170.783 17.0204 170.212 16.8469 169.498 16.8469C168.886 16.8469 168.416 16.9693 168.089 17.2143C167.763 17.4388 167.6 17.7552 167.6 18.1634C167.6 18.6533 167.855 19.0207 168.364 19.2656C168.895 19.5106 169.712 19.7555 170.815 20.0004C172.08 20.3271 173.111 20.6536 173.906 20.9803C174.702 21.2863 175.397 21.7967 175.988 22.5111C176.601 23.2051 176.917 24.144 176.938 25.3278C176.938 26.3281 176.652 27.2262 176.08 28.0222C175.529 28.7979 174.723 29.4102 173.662 29.8592C172.621 30.3083 171.406 30.5329 170.018 30.5329Z" fill="#3A3B7B"></path><path d="M196.092 13.2036V30.288H190.856V27.9612C190.326 28.7164 189.601 29.3287 188.683 29.7982C187.785 30.2473 186.785 30.4717 185.683 30.4717C184.376 30.4717 183.222 30.1861 182.222 29.6145C181.222 29.0225 180.447 28.1754 179.896 27.0732C179.345 25.971 179.069 24.675 179.069 23.1849V13.2036H184.274V22.4806C184.274 23.6237 184.57 24.5116 185.161 25.1443C185.754 25.7772 186.549 26.0935 187.549 26.0935C188.57 26.0935 189.376 25.7772 189.969 25.1443C190.561 24.5116 190.856 23.6237 190.856 22.4806V13.2036H196.092Z" fill="#3A3B7B"></path><path d="M220.733 13.02C222.856 13.02 224.54 13.663 225.785 14.9488C227.052 16.2348 227.684 18.0208 227.684 20.3069V30.2881H222.478V21.0111C222.478 19.9088 222.183 19.0619 221.591 18.4699C221.019 17.8576 220.223 17.5514 219.203 17.5514C218.182 17.5514 217.376 17.8576 216.783 18.4699C216.213 19.0619 215.927 19.9088 215.927 21.0111V30.2881H210.721V21.0111C210.721 19.9088 210.426 19.0619 209.834 18.4699C209.262 17.8576 208.466 17.5514 207.446 17.5514C206.425 17.5514 205.619 17.8576 205.026 18.4699C204.456 19.0619 204.17 19.9088 204.17 21.0111V30.2881H198.935V13.2037H204.17V15.3469C204.7 14.6325 205.394 14.0712 206.252 13.663C207.109 13.2343 208.078 13.02 209.16 13.02C210.446 13.02 211.589 13.2956 212.589 13.8467C213.61 14.3978 214.406 15.1837 214.978 16.2043C215.57 15.2653 216.376 14.4999 217.397 13.9079C218.418 13.316 219.53 13.02 220.733 13.02Z" fill="#3A3B7B"></path></svg>