<svg xmlns="http://www.w3.org/2000/svg" width="154" height="40" viewBox="0 0 154 40" fill="none"><path d="M12.564 36.2828L8.9502 30.0235L14.2537 20.8628L17.6238 26.7005L37.5185 26.6898L31.8732 36.3692L12.564 36.2828Z" fill="#FFAD64"></path><path d="M41.0711 20.4749L37.4574 26.7341L26.8722 26.7217L30.2427 20.8841L20.2861 3.66016L31.4914 3.70932L41.0711 20.4749Z" fill="#ADD4D3"></path><path d="M13.1211 3.62646H20.3488L25.6304 12.7999L18.8897 12.7995L8.95169 30.0342L3.3916 20.3056L13.1211 3.62646Z" fill="#FB8351"></path><path fill-rule="evenodd" clip-rule="evenodd" d="M21.2298 2.17753L21.2082 2.14014H12.2671L1.6748 20.2984L8.94585 33.0206L8.95477 33.0052L11.7035 37.7662L32.7251 37.8602L40.1074 25.2021H40.0583L42.7854 20.4786L32.3561 2.22634L21.2298 2.17753ZM28.1462 14.2868H28.202L22.9461 5.15854L30.6262 5.19221L39.3564 20.471L36.6239 25.2041L29.4628 25.2078L31.9595 20.8835L28.1462 14.2868ZM19.409 5.11354L22.9928 11.3133L18.0307 11.3132L9.53571 26.0453L8.95624 27.0463L5.10832 20.3135L13.975 5.11354H19.409ZM15.9633 20.8508L19.7484 14.2866L24.7118 14.2868L28.5255 20.8844L26.0282 25.2097L18.4821 25.2139L15.9633 20.8508ZM10.6704 30.0298L12.1104 27.5326L14.2519 23.8336L16.7657 28.1882L24.3108 28.1841L24.2985 28.2052L34.9065 28.2177L31.0215 34.8792L13.4246 34.8004L10.6704 30.0298Z" fill="#333237"></path><path d="M96.9399 13.0207C97.9581 13.0207 98.7853 12.1934 98.7853 11.1541C98.7853 10.1146 97.9581 9.30859 96.9399 9.30859C95.9006 9.30859 95.0732 10.1146 95.0732 11.1541C95.0732 12.1934 95.9006 13.0207 96.9399 13.0207ZM95.2853 25.2813H98.5732V14.6753H95.2853V25.2813Z" fill="#FB8351"></path><path d="M100.487 30.3724H103.712V24.2208C104.327 25.0269 105.727 25.5784 107.19 25.5784C110.351 25.5784 112.26 23.1603 112.176 19.8087C112.09 16.3935 110.118 14.3359 107.169 14.3359C105.663 14.3359 104.242 14.9935 103.648 15.9693L103.478 14.6754H100.487V30.3724ZM103.775 19.9784C103.775 18.3875 104.836 17.3269 106.363 17.3269C107.912 17.3269 108.887 18.4087 108.887 19.9784C108.887 21.548 107.912 22.6299 106.363 22.6299C104.836 22.6299 103.775 21.5693 103.775 19.9784Z" fill="#FB8351"></path><path d="M112.523 21.9299C112.608 24.0724 114.306 25.5572 116.978 25.5572C119.545 25.5572 121.327 24.1996 121.327 22.0147C121.327 20.445 120.393 19.4057 118.653 18.9814L116.766 18.5147C116.087 18.345 115.662 18.1754 115.662 17.6238C115.662 17.0724 116.108 16.7117 116.766 16.7117C117.508 16.7117 117.996 17.1996 117.975 17.9208H120.923C120.839 15.7147 119.162 14.3359 116.829 14.3359C114.475 14.3359 112.715 15.7359 112.715 17.8572C112.715 19.2784 113.499 20.445 115.599 20.9966L117.466 21.4845C118.017 21.6329 118.25 21.8875 118.25 22.248C118.25 22.7784 117.762 23.1178 116.936 23.1178C115.981 23.1178 115.472 22.6724 115.472 21.9299H112.523Z" fill="#FB8351"></path><path d="M126.326 25.5571C127.62 25.5571 128.914 24.9632 129.572 24.0935L129.784 25.2813H132.86V14.6753H129.593V20.1904C129.593 21.7813 129.126 22.6511 127.62 22.6511C126.453 22.6511 125.69 22.1207 125.69 20.148V14.6753H122.423V21.3358C122.423 23.8602 123.823 25.5571 126.326 25.5571Z" fill="#FB8351"></path><path d="M138.04 25.2816V19.4907C138.04 17.7089 138.994 17.1998 139.928 17.1998C140.968 17.1998 141.646 17.8362 141.646 19.1514V25.2816H144.87V19.4907C144.87 17.6877 145.803 17.1786 146.736 17.1786C147.776 17.1786 148.476 17.8149 148.476 19.1514V25.2816H151.658V18.3453C151.658 15.9271 150.385 14.3149 147.649 14.3149C146.122 14.3149 144.87 15.0574 144.319 16.2028C143.682 15.0574 142.58 14.3149 140.819 14.3149C139.652 14.3149 138.57 14.8453 137.934 15.6937L137.806 14.6756H134.752V25.2816H138.04Z" fill="#FB8351"></path><path d="M52.138 9.58594H48.6592V25.283H58.2895V22.2072H52.138V9.58594Z" fill="#333237"></path><path d="M58.6221 19.959C58.6221 23.3104 60.8706 25.5378 64.2645 25.5378C67.6373 25.5378 69.8857 23.3104 69.8857 19.959C69.8857 16.6074 67.6373 14.3589 64.2645 14.3589C60.8706 14.3589 58.6221 16.6074 58.6221 19.959ZM61.91 19.9378C61.91 18.3468 62.8433 17.2862 64.2645 17.2862C65.6645 17.2862 66.5978 18.3468 66.5978 19.9378C66.5978 21.5499 65.6645 22.6104 64.2645 22.6104C62.8433 22.6104 61.91 21.5499 61.91 19.9378Z" fill="#333237"></path><path d="M70.4105 19.7891C70.4105 22.9922 72.4894 25.1557 75.4378 25.1557C76.8591 25.1557 78.0894 24.6467 78.7045 23.8194V25.2831C78.7045 26.7467 77.7924 27.7224 76.1803 27.7224C74.7378 27.7224 73.7408 27.0436 73.6772 25.8345H70.3682C70.6651 28.7406 72.9136 30.6922 75.9894 30.6922C79.6166 30.6922 81.9075 28.3376 81.9075 24.6043V14.677H78.9591L78.7894 15.7589C78.1954 14.8891 76.9439 14.3164 75.5015 14.3164C72.5317 14.3164 70.4105 16.5436 70.4105 19.7891ZM73.7196 19.7043C73.7196 18.177 74.7378 17.1589 76.0317 17.1589C77.5378 17.1589 78.6408 18.1557 78.6408 19.7043C78.6408 21.2527 77.5591 22.3133 76.0529 22.3133C74.7591 22.3133 73.7196 21.2527 73.7196 19.7043Z" fill="#333237"></path><path d="M82.8604 19.959C82.8604 23.3104 85.1088 25.5378 88.5028 25.5378C91.8755 25.5378 94.124 23.3104 94.124 19.959C94.124 16.6074 91.8755 14.3589 88.5028 14.3589C85.1088 14.3589 82.8604 16.6074 82.8604 19.959ZM86.1482 19.9378C86.1482 18.3468 87.0816 17.2862 88.5028 17.2862C89.9028 17.2862 90.8361 18.3468 90.8361 19.9378C90.8361 21.5499 89.9028 22.6104 88.5028 22.6104C87.0816 22.6104 86.1482 21.5499 86.1482 19.9378Z" fill="#333237"></path></svg>