<svg xmlns="http://www.w3.org/2000/svg" width="214" height="40" viewBox="0 0 214 40" fill="none"><g clip-path="url(#clip0_342_736)"><path d="M14.4095 33.0593C10.2907 37.1782 3.31488 37.1618 1.36673 31.6723C0.985316 30.5975 0.680357 29.4924 0.45606 28.3648C-0.459737 23.7607 0.0102837 18.9886 1.80669 14.6516C3.60309 10.3148 6.64519 6.60794 10.5483 3.99997C14.4514 1.392 19.0403 -2.01083e-07 23.7345 0C28.4287 2.01083e-07 33.0175 1.392 36.9206 3.99997C40.8237 6.60794 43.8658 10.3148 45.6622 14.6517C47.4586 18.9886 47.9286 23.7607 47.0128 28.3648C46.7886 29.4924 46.4836 30.5975 46.1021 31.6723C44.1539 37.1618 37.1782 37.1782 33.0593 33.0593L26.7012 26.7012C26.0938 26.0938 26.1566 25.092 26.3241 24.2495C26.4259 23.7374 26.3737 23.2065 26.1738 22.724C25.9739 22.2415 25.6356 21.8291 25.2014 21.539C24.7672 21.249 24.2567 21.0941 23.7345 21.0941C23.2123 21.0941 22.7018 21.249 22.2676 21.539C21.8332 21.8291 21.4949 22.2415 21.295 22.724C21.0952 23.2065 21.0429 23.7374 21.1448 24.2495C21.3124 25.092 21.375 26.0938 20.7676 26.7012L14.4095 33.0593Z" fill="url(#paint0_linear_342_736)"></path><path d="M66.7786 27.3608H73.1583V31.1204H61.9082V11.1265H66.7786V27.3608Z" fill="#3A3B7B"></path><path d="M81.8608 31.3483C80.3039 31.3483 78.8988 31.016 77.6455 30.3514C76.4114 29.6869 75.4335 28.7375 74.712 27.5033C74.0095 26.2691 73.6582 24.8261 73.6582 23.1741C73.6582 21.5412 74.0189 20.1076 74.7404 18.8734C75.4621 17.6203 76.4494 16.6614 77.7025 15.9968C78.9557 15.3323 80.3608 15 81.9178 15C83.4748 15 84.8799 15.3323 86.133 15.9968C87.3862 16.6614 88.3735 17.6203 89.095 18.8734C89.8165 20.1076 90.1774 21.5412 90.1774 23.1741C90.1774 24.807 89.807 26.2501 89.0666 27.5033C88.3451 28.7375 87.3483 29.6869 86.076 30.3514C84.8229 31.016 83.4178 31.3483 81.8608 31.3483ZM81.8608 27.133C82.7912 27.133 83.5792 26.7913 84.2248 26.1077C84.8894 25.4241 85.2217 24.4463 85.2217 23.1741C85.2217 21.9019 84.8988 20.9241 84.2532 20.2406C83.6266 19.557 82.8481 19.2152 81.9178 19.2152C80.9684 19.2152 80.1804 19.557 79.5538 20.2406C78.9272 20.9051 78.6139 21.8829 78.6139 23.1741C78.6139 24.4463 78.9178 25.4241 79.5254 26.1077C80.152 26.7913 80.9305 27.133 81.8608 27.133Z" fill="#3A3B7B"></path><path d="M97.9448 15C99.0651 15 100.043 15.2279 100.878 15.6836C101.733 16.1392 102.388 16.7374 102.844 17.4778V15.2279H107.714V31.0919C107.714 32.5539 107.42 33.8737 106.831 35.0508C106.261 36.247 105.378 37.1964 104.182 37.8989C103.005 38.6015 101.534 38.9528 99.7677 38.9528C97.4132 38.9528 95.505 38.3927 94.0429 37.2724C92.581 36.171 91.7454 34.671 91.5365 32.7723H96.3499C96.5018 33.3799 96.8626 33.8546 97.4323 34.1964C98.0018 34.5571 98.7044 34.7375 99.5399 34.7375C100.546 34.7375 101.344 34.4432 101.932 33.8546C102.54 33.285 102.844 32.3641 102.844 31.0919V28.8419C102.369 29.5823 101.714 30.1901 100.878 30.6647C100.043 31.1204 99.0651 31.3483 97.9448 31.3483C96.6347 31.3483 95.448 31.016 94.3847 30.3514C93.3214 29.6679 92.4764 28.709 91.8499 27.4748C91.2423 26.2217 90.9385 24.7786 90.9385 23.1457C90.9385 21.5127 91.2423 20.0792 91.8499 18.845C92.4764 17.6108 93.3214 16.6614 94.3847 15.9968C95.448 15.3323 96.6347 15 97.9448 15ZM102.844 23.1741C102.844 21.9589 102.502 21 101.818 20.2975C101.154 19.595 100.337 19.2437 99.369 19.2437C98.4005 19.2437 97.5746 19.595 96.891 20.2975C96.2265 20.9811 95.8942 21.9305 95.8942 23.1457C95.8942 24.3608 96.2265 25.3292 96.891 26.0508C97.5746 26.7532 98.4005 27.1046 99.369 27.1046C100.337 27.1046 101.154 26.7532 101.818 26.0508C102.502 25.3481 102.844 24.3894 102.844 23.1741Z" fill="#3A3B7B"></path><path d="M117.618 31.3483C116.061 31.3483 114.656 31.016 113.402 30.3514C112.168 29.6869 111.19 28.7375 110.469 27.5033C109.766 26.2691 109.415 24.8261 109.415 23.1741C109.415 21.5412 109.776 20.1076 110.497 18.8734C111.219 17.6203 112.206 16.6614 113.459 15.9968C114.713 15.3323 116.118 15 117.675 15C119.232 15 120.637 15.3323 121.89 15.9968C123.143 16.6614 124.13 17.6203 124.852 18.8734C125.573 20.1076 125.934 21.5412 125.934 23.1741C125.934 24.807 125.564 26.2501 124.823 27.5033C124.102 28.7375 123.105 29.6869 121.833 30.3514C120.58 31.016 119.175 31.3483 117.618 31.3483ZM117.618 27.133C118.548 27.133 119.336 26.7913 119.982 26.1077C120.646 25.4241 120.978 24.4463 120.978 23.1741C120.978 21.9019 120.656 20.9241 120.01 20.2406C119.383 19.557 118.605 19.2152 117.675 19.2152C116.725 19.2152 115.937 19.557 115.311 20.2406C114.684 20.9051 114.371 21.8829 114.371 23.1741C114.371 24.4463 114.675 25.4241 115.282 26.1077C115.909 26.7913 116.687 27.133 117.618 27.133Z" fill="#3A3B7B"></path><path d="M130.113 13.5762C129.259 13.5762 128.556 13.3293 128.006 12.8357C127.474 12.323 127.208 11.6964 127.208 10.9559C127.208 10.1964 127.474 9.5698 128.006 9.07612C128.556 8.56346 129.259 8.30713 130.113 8.30713C130.949 8.30713 131.632 8.56346 132.164 9.07612C132.714 9.5698 132.99 10.1964 132.99 10.9559C132.99 11.6964 132.714 12.323 132.164 12.8357C131.632 13.3293 130.949 13.5762 130.113 13.5762ZM132.534 15.2281V31.1207H127.664V15.2281H132.534Z" fill="#3A3B7B"></path><path d="M140.079 17.4778C140.553 16.7374 141.209 16.1392 142.044 15.6836C142.88 15.2279 143.858 15 144.978 15C146.289 15 147.475 15.3323 148.538 15.9968C149.602 16.6614 150.438 17.6108 151.044 18.845C151.671 20.0792 151.985 21.5127 151.985 23.1457C151.985 24.7786 151.671 26.2217 151.044 27.4748C150.438 28.709 149.602 29.6679 148.538 30.3514C147.475 31.016 146.289 31.3483 144.978 31.3483C143.876 31.3483 142.9 31.1204 142.044 30.6647C141.209 30.209 140.553 29.6204 140.079 28.8989V38.6964H135.209V15.2279H140.079V17.4778ZM147.029 23.1457C147.029 21.9305 146.687 20.9811 146.003 20.2975C145.338 19.595 144.513 19.2437 143.526 19.2437C142.558 19.2437 141.731 19.595 141.047 20.2975C140.384 21 140.051 21.9589 140.051 23.1741C140.051 24.3894 140.384 25.3481 141.047 26.0508C141.731 26.7532 142.558 27.1046 143.526 27.1046C144.494 27.1046 145.32 26.7532 146.003 26.0508C146.687 25.3292 147.029 24.3608 147.029 23.1457Z" fill="#3A3B7B"></path><path d="M160.15 31.3483C158.764 31.3483 157.529 31.1109 156.447 30.6363C155.365 30.1615 154.51 29.516 153.884 28.6994C153.258 27.864 152.906 26.9337 152.83 25.9083H157.644C157.7 26.4589 157.957 26.9051 158.412 27.2469C158.869 27.5887 159.429 27.7596 160.094 27.7596C160.7 27.7596 161.165 27.6457 161.488 27.4178C161.83 27.171 162.001 26.8577 162.001 26.4779C162.001 26.0222 161.764 25.6899 161.289 25.4811C160.815 25.2532 160.045 25.0065 158.982 24.7406C157.842 24.4748 156.894 24.1994 156.134 23.9146C155.375 23.6109 154.72 23.1457 154.169 22.519C153.618 21.8735 153.343 21.0095 153.343 19.9273C153.343 19.0159 153.59 18.1899 154.084 17.4494C154.596 16.6899 155.336 16.0917 156.305 15.655C157.292 15.2183 158.46 15 159.808 15C161.801 15 163.368 15.4937 164.507 16.481C165.666 17.4684 166.331 18.7785 166.502 20.4114H162.001C161.925 19.8608 161.678 19.4241 161.26 19.1012C160.862 18.7785 160.331 18.6171 159.666 18.6171C159.096 18.6171 158.659 18.731 158.356 18.9589C158.052 19.1677 157.9 19.4621 157.9 19.8418C157.9 20.2975 158.138 20.6393 158.612 20.8672C159.106 21.095 159.865 21.3229 160.891 21.5506C162.067 21.8545 163.026 22.1583 163.767 22.4621C164.507 22.7469 165.153 23.2215 165.703 23.8862C166.273 24.5317 166.568 25.4051 166.587 26.5065C166.587 27.4368 166.321 28.2723 165.789 29.0128C165.277 29.7343 164.527 30.304 163.539 30.7217C162.571 31.1394 161.441 31.3483 160.15 31.3483Z" fill="#3A3B7B"></path><path d="M184.405 15.228V31.1206H179.535V28.956C179.041 29.6585 178.367 30.2282 177.513 30.6649C176.677 31.0826 175.747 31.2915 174.721 31.2915C173.506 31.2915 172.433 31.0257 171.503 30.494C170.572 29.9433 169.851 29.1553 169.339 28.1301C168.826 27.1047 168.569 25.8991 168.569 24.5129V15.228H173.411V23.8578C173.411 24.9211 173.687 25.7471 174.237 26.3357C174.787 26.9243 175.528 27.2186 176.459 27.2186C177.408 27.2186 178.158 26.9243 178.709 26.3357C179.259 25.7471 179.535 24.9211 179.535 23.8578V15.228H184.405Z" fill="#3A3B7B"></path><path d="M207.328 15.0571C209.302 15.0571 210.869 15.6552 212.028 16.8515C213.204 18.0476 213.793 19.709 213.793 21.8356V31.1206H208.952V22.4908C208.952 21.4654 208.676 20.6774 208.126 20.1268C207.593 19.5571 206.854 19.2723 205.904 19.2723C204.955 19.2723 204.204 19.5571 203.654 20.1268C203.123 20.6774 202.857 21.4654 202.857 22.4908V31.1206H198.014V22.4908C198.014 21.4654 197.739 20.6774 197.189 20.1268C196.657 19.5571 195.916 19.2723 194.967 19.2723C194.018 19.2723 193.268 19.5571 192.717 20.1268C192.185 20.6774 191.92 21.4654 191.92 22.4908V31.1206H187.05V15.228H191.92V17.2217C192.414 16.5571 193.059 16.0349 193.857 15.6552C194.654 15.2564 195.556 15.0571 196.562 15.0571C197.759 15.0571 198.822 15.3134 199.752 15.8261C200.701 16.3388 201.442 17.0698 201.974 18.0192C202.524 17.1457 203.275 16.4337 204.224 15.8831C205.173 15.3324 206.208 15.0571 207.328 15.0571Z" fill="#3A3B7B"></path></g><defs><linearGradient id="paint0_linear_342_736" x1="45.3084" y1="11.8672" x2="3.17982" y2="11.8672" gradientUnits="userSpaceOnUse"><stop stop-color="#64C2DB"></stop><stop offset="0.510417" stop-color="#7476ED"></stop><stop offset="1" stop-color="#E56F8C"></stop></linearGradient><clipPath id="clip0_342_736"><rect width="213.793" height="40" fill="white"></rect></clipPath></defs></svg>