<svg xmlns="http://www.w3.org/2000/svg" width="180" height="50" viewBox="0 0 180 50" fill="none"><path d="M10.597 34.099H14.1284C14.281 34.099 14.4481 34.0919 14.6298 34.0777C14.8114 34.0635 14.9786 34.0351 15.1312 33.9925C15.5308 33.886 15.8396 33.7086 16.0576 33.4601C16.2756 33.2046 16.4246 32.9242 16.5045 32.6189C16.5917 32.3066 16.6353 12.8454 16.6353 12.5686C16.6353 12.2917 16.5917 12.0007 16.5045 11.6954C16.4246 11.3831 16.2756 11.1027 16.0576 10.8542C15.8396 10.5986 15.5308 10.4176 15.1312 10.3111C14.9786 10.2685 14.8114 10.2401 14.6298 10.2259C14.4481 10.2118 14.281 10.2047 14.1284 10.2047H10.597V34.099Z" fill="white"></path><path fill-rule="evenodd" clip-rule="evenodd" d="M0 5C0 2.23858 2.23858 0 5 0H34.6879C37.4493 0 39.6879 2.23858 39.6879 5V45C39.6879 47.7614 37.4493 50 34.6879 50H5C2.23858 50 0 47.7614 0 45V5ZM7.63232 42V7.5H14.2592C14.4118 7.5 14.6152 7.5071 14.8696 7.5213C15.1312 7.5284 15.3637 7.54969 15.5671 7.58519C16.5045 7.72716 17.2711 8.02886 17.8669 8.49028C18.47 8.95171 18.9133 9.53381 19.1967 10.2366C19.48 10.9323 19.6217 11.7096 19.6217 12.5686C19.6217 13.4275 19.4764 33.3749 19.1858 34.0777C18.9024 34.7734 18.4591 35.352 17.856 35.8134C17.2602 36.2748 16.4972 36.5765 15.5671 36.7185C15.3637 36.7469 15.1312 36.7682 14.8696 36.7824C14.608 36.7966 14.4045 36.8037 14.2592 36.8037H10.597V42H7.63232ZM21.8101 42V7.5H32.0556V10.2047H24.7748V32.6509H30.7477V35.3555H24.7748V39.2953H32.0556V42H21.8101Z" fill="white"></path><path d="M86.5453 20.8601C87.6104 21.4867 88.8757 21.8 90.3411 21.8C92.0236 21.8 93.4347 21.39 94.5745 20.57C95.721 19.75 96.5283 18.64 96.9964 17.24L94.2081 16.48C93.9367 17.3467 93.4788 18.0234 92.8343 18.51C92.1898 18.9967 91.3587 19.24 90.3411 19.24C89.4116 19.24 88.6348 19.0367 88.0107 18.63C87.3933 18.2234 86.9286 17.65 86.6165 16.91C86.3045 16.17 86.1484 15.3 86.1484 14.3C86.1484 13.3 86.3045 12.43 86.6165 11.69C86.9286 10.95 87.3933 10.3767 88.0107 9.97005C88.6348 9.56338 89.4116 9.36005 90.3411 9.36005C91.3587 9.36005 92.1898 9.60338 92.8343 10.09C93.4788 10.57 93.9367 11.2467 94.2081 12.12L96.9964 11.36C96.5283 9.96005 95.721 8.85005 94.5745 8.03005C93.4347 7.21005 92.0236 6.80005 90.3411 6.80005C88.8757 6.80005 87.6104 7.11338 86.5453 7.74005C85.487 8.36672 84.6695 9.24338 84.0928 10.37C83.5229 11.4967 83.238 12.8067 83.238 14.3C83.238 15.7934 83.5229 17.1034 84.0928 18.23C84.6695 19.3567 85.487 20.2334 86.5453 20.8601Z" fill="white"></path><path fill-rule="evenodd" clip-rule="evenodd" d="M45.6919 7.10005V21.5H48.4599V16.62H51.8791C52.0148 16.62 52.2048 16.6134 52.449 16.6C52.6932 16.5867 52.9103 16.5667 53.1003 16.54C53.9687 16.4067 54.681 16.1234 55.2373 15.69C55.8004 15.2567 56.2143 14.7134 56.4789 14.06C56.7502 13.4 56.8859 12.6667 56.8859 11.86C56.8859 11.0534 56.7536 10.3234 56.489 9.67005C56.2244 9.01005 55.8106 8.46338 55.2475 8.03005C54.6912 7.59671 53.9755 7.31338 53.1003 7.18005C52.9103 7.14672 52.6932 7.12672 52.449 7.12005C52.2116 7.10672 52.0216 7.10005 51.8791 7.10005H45.6919ZM51.757 14.08H48.4599V9.64005H51.757C51.8995 9.64005 52.0555 9.64672 52.2251 9.66005C52.3947 9.67338 52.5508 9.70005 52.6932 9.74005C53.0664 9.84005 53.3547 10.01 53.5582 10.25C53.7618 10.4834 53.9008 10.7467 53.9755 11.04C54.0569 11.3267 54.0976 11.6 54.0976 11.86C54.0976 12.12 54.0569 12.3967 53.9755 12.69C53.9008 12.9767 53.7618 13.24 53.5582 13.48C53.3547 13.7134 53.0664 13.88 52.6932 13.98C52.5508 14.02 52.3947 14.0467 52.2251 14.06C52.0555 14.0734 51.8995 14.08 51.757 14.08Z" fill="white"></path><path fill-rule="evenodd" clip-rule="evenodd" d="M58.9291 7.10005V21.5H61.6971V16.62H64.7856L67.1924 21.5H70.3267L67.6809 16.1669C68.3216 15.8891 68.8304 15.4868 69.2073 14.96C69.8179 14.1 70.1232 13.0667 70.1232 11.86C70.1232 11.0534 69.9909 10.3234 69.7263 9.67005C69.4617 9.01005 69.0479 8.46338 68.4848 8.03005C67.9285 7.59671 67.2127 7.31338 66.3375 7.18005C66.1476 7.14672 65.9305 7.12672 65.6863 7.12005C65.4488 7.10672 65.2589 7.10005 65.1164 7.10005H58.9291ZM64.9943 14.08H61.6971V9.64005H64.9943C65.1367 9.64005 65.2928 9.64672 65.4624 9.66005C65.632 9.67338 65.788 9.70005 65.9305 9.74005C66.3036 9.84005 66.592 10.01 66.7955 10.25C66.999 10.4834 67.1381 10.7467 67.2127 11.04C67.2941 11.3267 67.3348 11.6 67.3348 11.86C67.3348 12.12 67.2941 12.3967 67.2127 12.69C67.1381 12.9767 66.999 13.24 66.7955 13.48C66.592 13.7134 66.3036 13.88 65.9305 13.98C65.788 14.02 65.632 14.0467 65.4624 14.06C65.2928 14.0734 65.1367 14.08 64.9943 14.08Z" fill="white"></path><path d="M72.5639 21.5V7.10005H82.1297V9.64005H75.3319V12.72H80.9085V15.26H75.3319V18.96H82.1297V21.5H72.5639Z" fill="white"></path><path d="M99.4407 7.10005H102.209V21.5H99.4407V7.10005Z" fill="white"></path><path d="M107.854 21.24C108.73 21.6134 109.71 21.8 110.795 21.8C111.542 21.8 112.264 21.7067 112.963 21.5201C113.669 21.3334 114.3 21.0534 114.856 20.68C115.412 20.3 115.853 19.8234 116.179 19.25C116.511 18.67 116.677 17.9934 116.677 17.22C116.677 16.4934 116.538 15.8934 116.26 15.42C115.989 14.9467 115.639 14.5667 115.212 14.28C114.791 13.9867 114.35 13.76 113.889 13.6C113.428 13.4334 113.007 13.3 112.627 13.2L110.083 12.52C109.771 12.44 109.466 12.34 109.167 12.22C108.869 12.1 108.621 11.9434 108.424 11.75C108.228 11.55 108.129 11.2934 108.129 10.98C108.129 10.64 108.248 10.3467 108.485 10.1C108.73 9.85338 109.042 9.66672 109.422 9.54005C109.808 9.40672 110.219 9.34671 110.653 9.36005C111.094 9.37338 111.515 9.46338 111.915 9.63005C112.322 9.79671 112.671 10.04 112.963 10.36C113.255 10.68 113.455 11.0734 113.563 11.54L116.555 11.04C116.318 10.14 115.931 9.38005 115.395 8.76005C114.859 8.13338 114.194 7.65672 113.401 7.33005C112.607 7.00338 111.705 6.83338 110.694 6.82005C109.69 6.81338 108.774 6.96671 107.946 7.28005C107.118 7.59338 106.457 8.07005 105.962 8.71005C105.466 9.35005 105.219 10.1534 105.219 11.12C105.219 11.8067 105.334 12.3767 105.565 12.83C105.802 13.2767 106.097 13.6367 106.45 13.91C106.803 14.1834 107.166 14.3934 107.539 14.54C107.919 14.6867 108.251 14.8 108.536 14.88L112.342 15.98C112.627 16.0667 112.861 16.1634 113.044 16.2701C113.234 16.3767 113.38 16.49 113.482 16.6101C113.584 16.73 113.655 16.86 113.696 17C113.743 17.1334 113.767 17.2734 113.767 17.42C113.767 17.82 113.628 18.1567 113.35 18.43C113.078 18.7034 112.729 18.91 112.302 19.05C111.874 19.19 111.433 19.26 110.979 19.26C110.165 19.26 109.439 19.0367 108.801 18.59C108.163 18.1434 107.743 17.5067 107.539 16.68L104.649 17.1C104.798 18.0734 105.151 18.9134 105.707 19.62C106.27 20.32 106.986 20.8601 107.854 21.24Z" fill="white"></path><path d="M119.118 7.10005H121.886V21.5H119.118V7.10005Z" fill="white"></path><path fill-rule="evenodd" clip-rule="evenodd" d="M127.43 20.8601C128.495 21.4867 129.76 21.8 131.225 21.8C132.691 21.8 133.953 21.4867 135.011 20.8601C136.076 20.2334 136.894 19.3567 137.464 18.23C138.04 17.1034 138.329 15.7934 138.329 14.3C138.329 12.8067 138.04 11.4967 137.464 10.37C136.894 9.24338 136.076 8.36672 135.011 7.74005C133.953 7.11338 132.691 6.80005 131.225 6.80005C129.76 6.80005 128.495 7.11338 127.43 7.74005C126.371 8.36672 125.554 9.24338 124.977 10.37C124.407 11.4967 124.122 12.8067 124.122 14.3C124.122 15.7934 124.407 17.1034 124.977 18.23C125.554 19.3567 126.371 20.2334 127.43 20.8601ZM133.546 18.65C132.928 19.0567 132.155 19.2534 131.225 19.24C130.296 19.2267 129.523 19.0167 128.905 18.6101C128.288 18.2034 127.823 17.6334 127.511 16.9C127.206 16.1667 127.053 15.3 127.053 14.3C127.053 13.3 127.206 12.4267 127.511 11.68C127.823 10.9334 128.288 10.3567 128.905 9.95005C129.523 9.54338 130.296 9.34671 131.225 9.36005C132.155 9.37338 132.928 9.58338 133.546 9.99005C134.163 10.3967 134.624 10.9667 134.93 11.7C135.242 12.4334 135.398 13.3 135.398 14.3C135.398 15.3 135.242 16.1734 134.93 16.92C134.624 17.6667 134.163 18.2434 133.546 18.65Z" fill="white"></path><path d="M140.36 7.10005H143.169L149.539 16.7V7.10005H152.348V21.5H149.539L143.169 11.9V21.5H140.36V7.10005Z" fill="white"></path><path d="M45.6919 29.1V43.5H55.2577V40.96H48.4599V37.26H54.0365V34.72H48.4599V31.64H55.2577V29.1H45.6919Z" fill="white"></path><path d="M57.6968 43.5V29.1H60.5055L66.8759 38.7001V29.1H69.6846V43.5H66.8759L60.5055 33.9V43.5H57.6968Z" fill="white"></path><path d="M75.9943 43.32C76.8288 43.64 77.7073 43.8 78.63 43.8C80.0411 43.8 81.2657 43.5 82.3037 42.9C83.3417 42.2934 84.1456 41.4567 84.7155 40.39C85.2853 39.3234 85.5703 38.1 85.5703 36.72C85.5703 36.6867 85.5669 36.5601 85.5601 36.34C85.5533 36.12 85.5431 35.9667 85.5296 35.8801H80.2582V37.98H82.5784C82.4292 38.74 82.1781 39.3634 81.8254 39.85C81.4726 40.3367 81.0384 40.6934 80.5228 40.92C80.014 41.1467 79.4441 41.2534 78.8132 41.24C77.8837 41.2267 77.1103 41.0167 76.4929 40.6101C75.8756 40.2034 75.4109 39.6334 75.0988 38.9C74.7935 38.1667 74.6408 37.3 74.6408 36.3C74.6408 35.3 74.7935 34.4267 75.0988 33.68C75.4109 32.9334 75.8756 32.3567 76.4929 31.95C77.1103 31.5434 77.8837 31.3467 78.8132 31.36C79.7494 31.3667 80.516 31.6234 81.113 32.1301C81.7168 32.6301 82.151 33.3 82.4156 34.14L85.2446 33.74C84.8783 32.1667 84.1558 30.95 83.0771 30.09C81.9984 29.23 80.516 28.8 78.63 28.8C77.3545 28.8 76.191 29.0934 75.1395 29.68C74.0947 30.2667 73.2602 31.12 72.6361 32.2401C72.0187 33.3534 71.71 34.7067 71.71 36.3C71.71 37.5201 71.8932 38.5967 72.2596 39.53C72.6327 40.4634 73.1381 41.2467 73.7758 41.8801C74.4203 42.5134 75.1598 42.9934 75.9943 43.32Z" fill="white"></path><path d="M87.8134 29.1H90.5813V43.5H87.8134V29.1Z" fill="white"></path><path d="M96.4409 29.1H93.6322V43.5H96.4409V33.9L102.811 43.5H105.62V29.1H102.811V38.7001L96.4409 29.1Z" fill="white"></path><path d="M108.46 29.1H118.025V31.64H111.227V34.72H116.804V37.26H111.227V40.96H118.025V43.5H108.46V29.1Z" fill="white"></path><path d="M130.03 29.1H120.464V43.5H130.03V40.96H123.232V37.26H128.809V34.72H123.232V31.64H130.03V29.1Z" fill="white"></path><path fill-rule="evenodd" clip-rule="evenodd" d="M132.469 29.1H138.657C138.799 29.1 138.989 29.1067 139.227 29.12C139.471 29.1267 139.688 29.1467 139.878 29.18C140.753 29.3134 141.469 29.5967 142.025 30.03C142.588 30.4634 143.002 31.01 143.267 31.67C143.531 32.3234 143.663 33.0534 143.663 33.86C143.663 35.0667 143.358 36.1 142.748 36.96C142.371 37.4868 141.862 37.8891 141.221 38.1669L143.867 43.5H140.733L138.326 38.62H135.237V43.5H132.469V29.1ZM135.237 36.08H138.535C138.677 36.08 138.833 36.0734 139.003 36.0601C139.172 36.0467 139.328 36.0201 139.471 35.98C139.844 35.8801 140.132 35.7134 140.336 35.48C140.539 35.24 140.678 34.9767 140.753 34.69C140.834 34.3967 140.875 34.12 140.875 33.86C140.875 33.6 140.834 33.3267 140.753 33.04C140.678 32.7467 140.539 32.4834 140.336 32.25C140.132 32.01 139.844 31.84 139.471 31.74C139.328 31.7 139.172 31.6734 139.003 31.66C138.833 31.6467 138.677 31.64 138.535 31.64H135.237V36.08Z" fill="white"></path><path d="M149.076 29.1H146.308V43.5H149.076V29.1Z" fill="white"></path><path d="M152.127 29.1H154.935L161.306 38.7001V29.1H164.114V43.5H161.306L154.935 33.9V43.5H152.127V29.1Z" fill="white"></path><path d="M170.424 43.32C171.258 43.64 172.137 43.8 173.06 43.8C174.471 43.8 175.695 43.5 176.733 42.9C177.771 42.2934 178.575 41.4567 179.145 40.39C179.715 39.3234 180 38.1 180 36.72C180 36.6867 179.997 36.5601 179.99 36.34C179.983 36.12 179.973 35.9667 179.959 35.8801H174.688V37.98H177.008C176.859 38.74 176.608 39.3634 176.255 39.85C175.902 40.3367 175.468 40.6934 174.952 40.92C174.444 41.1467 173.874 41.2534 173.243 41.24C172.313 41.2267 171.54 41.0167 170.923 40.6101C170.305 40.2034 169.841 39.6334 169.528 38.9C169.223 38.1667 169.071 37.3 169.071 36.3C169.071 35.3 169.223 34.4267 169.528 33.68C169.841 32.9334 170.305 32.3567 170.923 31.95C171.54 31.5434 172.313 31.3467 173.243 31.36C174.179 31.3667 174.946 31.6234 175.543 32.1301C176.146 32.6301 176.581 33.3 176.845 34.14L179.674 33.74C179.308 32.1667 178.585 30.95 177.507 30.09C176.428 29.23 174.946 28.8 173.06 28.8C171.784 28.8 170.621 29.0934 169.569 29.68C168.524 30.2667 167.69 31.12 167.066 32.2401C166.448 33.3534 166.14 34.7067 166.14 36.3C166.14 37.5201 166.323 38.5967 166.689 39.53C167.062 40.4634 167.568 41.2467 168.206 41.8801C168.85 42.5134 169.59 42.9934 170.424 43.32Z" fill="white"></path></svg>